<?xml version="1.0" encoding="utf-8"?>
<!-- Generator: Adobe Illustrator 18.1.0, SVG Export Plug-In . SVG Version: 6.00 Build 0)  -->
<svg version="1.1" id="Layer_1" xmlns="http://www.w3.org/2000/svg" xmlns:xlink="http://www.w3.org/1999/xlink" x="0px" y="0px"
	 viewBox="0 0 600 373.8" enable-background="new 0 0 600 373.8" xml:space="preserve">
<g>
	<path fill="#FFFFFF" d="M292.3,67l-148.5,85.7l148.3,85.7h0.1l148.6-85.8L292.3,67z M292.2,215.9l-110-63.2l110.1-63.2l110.2,63.1
		l-110.2,63.3H292.2z"/>
	<path fill="#FFFFFF" d="M292.3,0L143.8,85.7l148.3,85.7h0.1l148.6-85.8L292.3,0z M292.2,148.9l-110-63.2l110.1-63.2l110.2,63.1
		l-110.2,63.3H292.2z"/>
	<g id="INSIGHTSQUARED_paths">
		<path fill="#FFFFFF" d="M0,364.1v-48.9h4.9v48.9H0z"/>
		<path fill="#FFFFFF" d="M51.9,315.2h4.9v49.4h-5.4l-28-42.4v41.9h-4.9v-48.9h5.6l27.8,42V315.2z"/>
		<path fill="#FFFFFF" d="M82.6,360.8c1.7,0,3.3-0.2,4.7-0.7c1.4-0.5,2.6-1.1,3.6-2c1-0.8,1.8-1.8,2.4-2.9c0.6-1.1,0.9-2.3,0.9-3.7
			c0-1.4-0.3-2.6-0.9-3.7c-0.6-1-1.4-2-2.5-2.7c-1.1-0.8-2.4-1.5-3.9-2.1c-1.5-0.6-3.2-1.2-5.2-1.8c-1.7-0.5-3.4-1.1-5.1-1.8
			c-1.7-0.7-3.2-1.5-4.6-2.6c-1.4-1-2.4-2.3-3.3-3.8c-0.8-1.5-1.3-3.3-1.3-5.5c0-1.9,0.4-3.7,1.2-5.4c0.8-1.6,1.9-3.1,3.2-4.2
			c1.4-1.2,3-2.1,5-2.7c1.9-0.7,4-1,6.3-1c2.8,0,5.5,0.4,7.9,1.1c2.4,0.7,4.7,1.8,6.8,3.1l-1.8,4.4c-1.8-1.3-3.9-2.2-6.1-3
			c-2.3-0.7-4.5-1.1-6.7-1.1c-1.8,0-3.4,0.2-4.8,0.7c-1.4,0.4-2.5,1.1-3.4,1.8c-0.9,0.8-1.6,1.7-2,2.7c-0.4,1-0.7,2.1-0.7,3.2
			c0,1.4,0.3,2.5,0.9,3.5c0.6,1,1.4,1.8,2.5,2.5c1.1,0.7,2.4,1.4,3.9,2c1.5,0.6,3.2,1.2,5.1,1.8c1.8,0.5,3.5,1.1,5.2,1.8
			c1.7,0.7,3.2,1.6,4.5,2.7c1.3,1.1,2.4,2.4,3.2,4c0.8,1.6,1.2,3.4,1.2,5.6c0,2-0.4,3.9-1.2,5.6c-0.8,1.7-2,3.2-3.4,4.5
			c-1.5,1.3-3.2,2.2-5.2,2.9c-2,0.7-4.3,1.1-6.7,1.1c-3,0-5.8-0.4-8.4-1.2c-2.6-0.8-5.1-1.9-7.3-3.3l1.8-4.5c2,1.4,4.1,2.5,6.4,3.3
			C77.2,360.3,79.7,360.8,82.6,360.8z"/>
		<path fill="#FFFFFF" d="M109.5,364.1v-48.9h4.9v48.9H109.5z"/>
		<path fill="#FFFFFF" d="M157.7,363.9c-3,0.8-5.8,1.2-8.7,1.2c-3.6,0-6.8-0.6-9.7-1.8c-2.9-1.2-5.4-2.9-7.5-5.1
			c-2.1-2.2-3.7-4.9-4.8-8c-1.1-3.1-1.7-6.6-1.7-10.5c0-3.9,0.6-7.4,1.8-10.6c1.2-3.1,2.8-5.8,4.9-8.1c2.1-2.2,4.6-4,7.5-5.2
			c2.9-1.2,6-1.8,9.5-1.8c3,0,5.9,0.4,8.7,1.2c2.7,0.8,5,1.8,6.9,2.9l-1.6,4.5c-1.8-1.2-4-2.2-6.4-2.9c-2.5-0.8-5-1.1-7.5-1.1
			c-2.7,0-5.1,0.5-7.4,1.4c-2.2,0.9-4.2,2.3-5.8,4.1c-1.6,1.8-2.9,4-3.9,6.5c-0.9,2.6-1.4,5.5-1.4,8.9c0,3.2,0.4,6.2,1.3,8.7
			c0.9,2.6,2.2,4.8,3.8,6.6c1.6,1.8,3.6,3.2,5.9,4.2c2.3,1,4.8,1.4,7.6,1.4c2.3,0,4.5-0.3,6.5-0.8c2-0.5,3.7-1.3,5.3-2.2v-15.7
			h-14.2v-4.5h19v22.9C163.3,361.9,160.6,363.1,157.7,363.9z"/>
		<path fill="#FFFFFF" d="M211.4,364.1v-22.3h-28.7v22.3h-5v-48.9h5v22.1h28.7v-22.1h5v48.9H211.4z"/>
		<path fill="#FFFFFF" d="M247.5,319.9v44.3h-5v-44.3h-17.2v-4.7h39.5v4.7H247.5z"/>
		<path fill="#FFFFFF" d="M288.7,355c2.2,0,4-0.4,5.4-1.2c1.4-0.8,2.1-1.9,2.1-3.4c0-0.8-0.2-1.5-0.7-2.1c-0.4-0.6-1.1-1.1-1.9-1.5
			c-0.8-0.4-1.9-0.9-3.1-1.3c-1.3-0.4-2.7-0.8-4.3-1.3c-1.8-0.5-3.6-1.1-5.4-1.8c-1.9-0.7-3.6-1.7-5.1-2.8c-1.5-1.1-2.8-2.5-3.8-4.2
			c-1-1.7-1.4-3.8-1.4-6.2c0-4.5,1.6-8.2,4.9-11c3.2-2.8,7.9-4.1,13.9-4.1c3.9,0,7.3,0.4,10.3,1.2c3,0.8,5.7,1.8,8,3.1l-2.4,10.3
			c-2.5-1.3-5.1-2.3-7.9-3.1c-2.8-0.8-5.5-1.2-7.9-1.2c-4.3,0-6.4,1.4-6.4,4.2c0,0.8,0.3,1.5,0.8,2.1c0.5,0.6,1.3,1.1,2.2,1.6
			c0.9,0.4,2,0.9,3.3,1.3c1.3,0.4,2.6,0.8,4.1,1.2c1.9,0.5,3.7,1.1,5.6,1.9c1.8,0.7,3.5,1.7,4.9,2.8c1.5,1.1,2.6,2.5,3.5,4.1
			c0.9,1.6,1.3,3.6,1.3,6c0,2.4-0.4,4.5-1.3,6.4c-0.9,1.9-2.2,3.6-3.9,5c-1.7,1.4-3.8,2.5-6.3,3.3c-2.5,0.8-5.3,1.2-8.6,1.2
			c-3.7,0-7.1-0.4-10.5-1.3c-3.3-0.8-6.1-1.9-8.4-3.2l2.3-10.3c2.5,1.3,5.1,2.4,7.9,3.3C282.7,354.6,285.7,355,288.7,355z"/>
		<path fill="#FFFFFF" d="M363.9,368.1l-9.9,5.7l-15.1-8.7c-0.2,0-0.7,0.1-1.2,0.1c-3.6,0-7-0.6-10.1-1.7c-3.1-1.1-5.8-2.8-8.1-4.9
			c-2.3-2.1-4.1-4.8-5.4-8c-1.3-3.2-2-6.8-2-11c0-3.9,0.7-7.4,2-10.6c1.3-3.2,3.1-5.9,5.4-8.1c2.3-2.2,5-4,8.1-5.2
			c3.1-1.2,6.5-1.8,10.2-1.8c3.7,0,7,0.5,10.1,1.6c3.1,1.1,5.8,2.7,8.1,4.9c2.3,2.2,4.1,4.8,5.4,8c1.3,3.2,2,6.8,2,10.9
			c0,4.9-1,9.1-3.1,12.8c-2.1,3.7-5.1,6.7-8.7,8.9L363.9,368.1z M350.9,339.8c0-2.4-0.3-4.5-0.9-6.4c-0.6-1.9-1.5-3.6-2.6-5
			c-1.1-1.4-2.5-2.5-4.1-3.2c-1.6-0.8-3.5-1.1-5.6-1.1c-4.2,0-7.4,1.4-9.6,4.3c-2.2,2.8-3.4,6.6-3.4,11.2c0,2.3,0.3,4.5,0.9,6.5
			c0.6,2,1.5,3.6,2.6,5.1c1.1,1.4,2.5,2.5,4.2,3.3c1.6,0.8,3.5,1.2,5.6,1.2c4.2,0,7.4-1.4,9.6-4.3
			C349.8,348.2,350.9,344.5,350.9,339.8z"/>
		<path fill="#FFFFFF" d="M410.6,353.4c-1,2.6-2.5,4.8-4.3,6.6c-1.9,1.8-4.2,3.1-6.8,4c-2.7,0.9-5.6,1.3-8.9,1.3
			c-3.2,0-6.1-0.4-8.7-1.2c-2.6-0.8-4.9-2-6.8-3.7c-1.9-1.6-3.4-3.7-4.4-6.2c-1-2.5-1.6-5.5-1.6-8.9v-30.1h12.4v28.4
			c0,3.7,0.8,6.5,2.3,8.4c1.5,1.9,3.9,2.8,7.2,2.8c3,0,5.2-0.8,6.7-2.5c1.5-1.7,2.2-4.4,2.2-8.2v-28.9h12.4v29
			C412.1,347.7,411.6,350.8,410.6,353.4z"/>
		<path fill="#FFFFFF" d="M463.8,364.1h-12.4l-3.6-10.4h-18.2l-3.5,10.4h-12.4l17.4-48.9h15.6L463.8,364.1z M438.8,324.8l-6.5,19.2
			h12.8L438.8,324.8z"/>
		<path fill="#FFFFFF" d="M479.2,364.1h-12.4v-48.9h19.7c6.5,0,11.5,1.4,14.8,4.2c3.3,2.8,5,6.6,5,11.3c0,3.3-0.8,6.1-2.5,8.6
			c-1.7,2.4-4.2,4.3-7.5,5.5l12.5,19.3h-14l-9.8-16.4l-5.7,0.5V364.1z M485.2,338.7c2.7-0.2,4.7-0.9,6.1-2c1.4-1.1,2.1-2.9,2.1-5.2
			c0-4.3-3.1-6.4-9.2-6.4h-5.3v13.9L485.2,338.7z"/>
		<path fill="#FFFFFF" d="M512.7,364.1v-48.9h35.7v10h-23.6v9.3h19v10h-19v9.6h23.6v10H512.7z"/>
		<path fill="#FFFFFF" d="M600,339.3c0,3.8-0.6,7.2-1.8,10.2c-1.2,3.1-3,5.7-5.4,7.8c-2.3,2.2-5.3,3.8-8.7,5
			c-3.5,1.2-7.5,1.8-11.9,1.8h-17.5v-48.9H573c4.3,0,8.2,0.6,11.5,1.7c3.3,1.2,6.2,2.8,8.5,4.9c2.3,2.1,4,4.6,5.3,7.6
			C599.4,332.3,600,335.6,600,339.3z M587.5,339.8c0-5-1.3-8.7-3.8-11.1c-2.5-2.3-6.4-3.5-11.5-3.5H567v28.9h5.8
			c4.5,0,8.1-1.2,10.7-3.5C586.2,348.3,587.5,344.6,587.5,339.8z"/>
	</g>
</g>
</svg>
