<?xml version="1.0" encoding="utf-8"?>
<!-- Generator: Adobe Illustrator 18.1.0, SVG Export Plug-In . SVG Version: 6.00 Build 0)  -->
<svg version="1.1" xmlns="http://www.w3.org/2000/svg" xmlns:xlink="http://www.w3.org/1999/xlink" x="0px" y="0px"
	 viewBox="0 0 460 369.2" enable-background="new 0 0 460 369.2" xml:space="preserve">
<g id="Layer_2">
</g>
<g id="Layer_1">
	<g>
		<path fill="#FFFFFF" d="M229.9,103.7L0,236.4l229.7,132.7h0.2L460,236.3L229.9,103.7z M229.8,334.3L59.4,236.4l170.5-97.9
			l170.7,97.8l-170.7,98H229.8z"/>
		<path fill="#FFFFFF" d="M229.9,0L0,132.7l229.7,132.7h0.2L460,132.6L229.9,0z M229.8,230.6L59.4,132.7l170.5-97.9l170.7,97.8
			l-170.7,98H229.8z"/>
	</g>
	<g id="INSIGHTSQUARED_paths">
		<path fill="#FFFFFF" d="M-222.1,563.6v-75.7h7.5v75.7H-222.1z"/>
		<path fill="#FFFFFF" d="M-141.7,487.9h7.5v76.4h-8.4l-43.4-65.5v64.8h-7.5v-75.7h8.7l43,64.9V487.9z"/>
		<path fill="#FFFFFF" d="M-94.4,558.4c2.7,0,5.1-0.4,7.3-1.1c2.2-0.7,4.1-1.7,5.6-3c1.6-1.3,2.8-2.8,3.7-4.5
			c0.9-1.7,1.3-3.6,1.3-5.6c0-2.2-0.4-4.1-1.3-5.7c-0.9-1.6-2.2-3-3.8-4.2c-1.6-1.2-3.6-2.3-6-3.2c-2.3-0.9-5-1.8-8-2.7
			c-2.7-0.8-5.3-1.7-7.9-2.8c-2.6-1.1-5-2.4-7.1-4c-2.1-1.6-3.8-3.6-5.1-5.9c-1.3-2.3-1.9-5.2-1.9-8.6c0-3,0.6-5.8,1.8-8.3
			c1.2-2.5,2.9-4.7,5-6.5c2.1-1.8,4.7-3.2,7.7-4.2c3-1,6.2-1.5,9.7-1.5c4.4,0,8.4,0.6,12.2,1.7c3.8,1.1,7.3,2.7,10.5,4.8l-2.8,6.8
			c-2.8-1.9-6-3.5-9.5-4.6c-3.5-1.1-7-1.7-10.4-1.7c-2.8,0-5.3,0.3-7.4,1c-2.1,0.7-3.9,1.6-5.3,2.8c-1.4,1.2-2.5,2.6-3.1,4.2
			c-0.7,1.6-1,3.2-1,4.9c0,2.1,0.4,3.9,1.3,5.4c0.9,1.5,2.2,2.8,3.9,3.9c1.7,1.1,3.7,2.2,6.1,3.1c2.3,0.9,5,1.8,7.9,2.7
			c2.7,0.8,5.4,1.8,8.1,2.8c2.6,1.1,5,2.5,7,4.2c2.1,1.7,3.7,3.8,5,6.2c1.3,2.4,1.9,5.3,1.9,8.7c0,3.1-0.6,6.1-1.9,8.7
			c-1.3,2.7-3,5-5.3,6.9c-2.2,1.9-4.9,3.5-8.1,4.5c-3.2,1.1-6.6,1.6-10.4,1.6c-4.6,0-8.9-0.6-13-1.8c-4.1-1.2-7.9-2.9-11.3-5.1
			l2.8-6.9c3.1,2.1,6.4,3.8,9.9,5.1C-102.7,557.8-98.7,558.4-94.4,558.4z"/>
		<path fill="#FFFFFF" d="M-52.7,563.6v-75.7h7.5v75.7H-52.7z"/>
		<path fill="#FFFFFF" d="M21.8,563.3c-4.6,1.3-9,1.9-13.4,1.9c-5.5,0-10.5-0.9-15-2.8c-4.5-1.9-8.3-4.5-11.6-7.9
			c-3.2-3.4-5.7-7.5-7.5-12.4c-1.7-4.8-2.6-10.3-2.6-16.2c0-6.1,0.9-11.5,2.7-16.4c1.8-4.8,4.4-9,7.6-12.5c3.3-3.5,7.1-6.1,11.6-8
			c4.4-1.9,9.3-2.8,14.7-2.8c4.7,0,9.1,0.6,13.4,1.9c4.2,1.3,7.8,2.7,10.6,4.4l-2.5,7c-2.8-1.9-6.1-3.4-9.9-4.5
			c-3.8-1.2-7.7-1.8-11.6-1.8c-4.1,0-7.9,0.7-11.4,2.2c-3.5,1.4-6.5,3.6-9,6.3c-2.5,2.7-4.5,6.1-6,10.1c-1.5,4-2.2,8.6-2.2,13.7
			c0,5,0.7,9.5,2.1,13.5c1.4,4,3.3,7.4,5.9,10.2c2.5,2.8,5.6,5,9.1,6.5c3.5,1.5,7.4,2.2,11.8,2.2c3.6,0,7-0.4,10-1.3
			c3-0.8,5.8-2,8.2-3.3v-24.3H4.8v-7h29.4v35.4C30.6,560.2,26.4,562.1,21.8,563.3z"/>
		<path fill="#FFFFFF" d="M104.9,563.6v-34.5H60.6v34.5h-7.8v-75.7h7.8v34.2h44.3v-34.2h7.8v75.7H104.9z"/>
		<path fill="#FFFFFF" d="M160.7,495.2v68.4H153v-68.4h-26.6v-7.3h61.1v7.3H160.7z"/>
		<path fill="#FFFFFF" d="M224.4,549.6c3.4,0,6.2-0.6,8.3-1.8c2.1-1.2,3.2-3,3.2-5.3c0-1.3-0.3-2.4-1-3.3c-0.7-0.9-1.7-1.7-3-2.4
			c-1.3-0.7-2.9-1.3-4.8-1.9c-1.9-0.6-4.2-1.3-6.7-2c-2.7-0.7-5.6-1.7-8.4-2.8c-2.9-1.1-5.5-2.6-7.9-4.3c-2.4-1.7-4.3-3.9-5.8-6.5
			c-1.5-2.6-2.2-5.8-2.2-9.6c0-7,2.5-12.7,7.5-17c5-4.3,12.2-6.4,21.6-6.4c6,0,11.3,0.6,15.9,1.8c4.6,1.2,8.8,2.8,12.4,4.8
			l-3.8,15.9c-3.8-2-7.9-3.6-12.2-4.8c-4.4-1.2-8.4-1.8-12.2-1.8c-6.6,0-9.9,2.1-9.9,6.4c0,1.2,0.4,2.3,1.2,3.2
			c0.8,0.9,1.9,1.7,3.4,2.4c1.5,0.7,3.2,1.3,5.1,1.9c1.9,0.6,4,1.2,6.3,1.9c2.9,0.8,5.8,1.8,8.6,2.9c2.8,1.1,5.4,2.6,7.6,4.3
			c2.3,1.7,4.1,3.9,5.5,6.4c1.4,2.5,2.1,5.6,2.1,9.3c0,3.6-0.7,6.9-2.1,9.9c-1.4,3-3.4,5.6-6,7.8c-2.6,2.2-5.9,3.9-9.7,5.1
			c-3.8,1.2-8.3,1.8-13.3,1.8c-5.7,0-11-0.6-16.2-1.9c-5.1-1.3-9.5-2.9-13-5l3.6-16c3.8,2,7.9,3.7,12.3,5
			C215.2,548.9,219.8,549.6,224.4,549.6z"/>
		<path fill="#FFFFFF" d="M340.7,569.8l-15.4,8.9l-23.3-13.4c-0.3,0.1-1.1,0.2-1.8,0.2c-5.6,0-10.8-0.9-15.6-2.6
			c-4.8-1.7-9-4.3-12.5-7.6c-3.5-3.3-6.3-7.4-8.3-12.4c-2-4.9-3-10.6-3-17c0-6,1-11.4,3-16.4c2-4.9,4.8-9.1,8.4-12.6
			c3.5-3.5,7.7-6.2,12.6-8.1c4.8-1.9,10.1-2.8,15.7-2.8c5.7,0,10.9,0.8,15.7,2.5c4.8,1.7,9,4.2,12.5,7.6c3.6,3.4,6.3,7.5,8.4,12.4
			c2,4.9,3,10.5,3,16.9c0,7.5-1.6,14.1-4.8,19.7c-3.2,5.7-8,10.4-13.4,13.7L340.7,569.8z M320.8,525.9c0-3.6-0.5-6.9-1.4-9.9
			c-0.9-3-2.3-5.5-4-7.7c-1.7-2.1-3.9-3.8-6.4-5c-2.5-1.2-5.4-1.8-8.7-1.8c-6.5,0-11.4,2.2-14.9,6.6c-3.5,4.4-5.2,10.2-5.2,17.3
			c0,3.6,0.5,7,1.4,10c0.9,3,2.3,5.6,4,7.8c1.7,2.2,3.9,3.9,6.4,5.1c2.5,1.2,5.4,1.8,8.7,1.8c6.5,0,11.4-2.2,14.9-6.7
			C319,539.1,320.8,533.2,320.8,525.9z"/>
		<path fill="#FFFFFF" d="M413,547.1c-1.6,4.1-3.8,7.5-6.7,10.2c-2.9,2.7-6.4,4.8-10.5,6.1c-4.1,1.3-8.7,2-13.8,2
			c-4.9,0-9.4-0.6-13.5-1.9c-4.1-1.2-7.6-3.1-10.5-5.7c-2.9-2.5-5.2-5.8-6.8-9.6c-1.6-3.9-2.4-8.5-2.4-13.8v-46.5h19.1v44
			c0,5.7,1.2,10,3.5,13c2.3,2.9,6.1,4.4,11.1,4.4c4.6,0,8.1-1.3,10.4-3.9c2.3-2.6,3.4-6.8,3.4-12.7v-44.7h19.1v44.8
			C415.4,538.2,414.6,543,413,547.1z"/>
		<path fill="#FFFFFF" d="M495.3,563.6h-19.1l-5.6-16.1h-28.1l-5.5,16.1h-19.1l26.9-75.7h24.1L495.3,563.6z M456.7,502.8l-10.1,29.7
			h19.7L456.7,502.8z"/>
		<path fill="#FFFFFF" d="M519,563.6h-19.3v-75.7h30.4c10.1,0,17.7,2.2,22.9,6.5c5.2,4.3,7.8,10.2,7.8,17.5c0,5.1-1.3,9.5-3.9,13.3
			c-2.6,3.8-6.5,6.6-11.6,8.5l19.4,29.9H543l-15.1-25.4l-8.8,0.7V563.6z M528.4,524.4c4.1-0.3,7.3-1.4,9.5-3.1
			c2.2-1.8,3.3-4.5,3.3-8.1c0-6.6-4.8-9.9-14.3-9.9h-8.1v21.4L528.4,524.4z"/>
		<path fill="#FFFFFF" d="M570.9,563.6v-75.7h55.2v15.5h-36.5v14.4H619v15.5h-29.3v14.8h36.5v15.5H570.9z"/>
		<path fill="#FFFFFF" d="M706,525.2c0,5.8-1,11.1-2.8,15.8c-1.9,4.7-4.7,8.8-8.3,12.1c-3.6,3.4-8.1,5.9-13.5,7.8
			c-5.4,1.8-11.5,2.7-18.5,2.7h-27.1v-75.7h28.5c6.7,0,12.6,0.9,17.8,2.7c5.2,1.8,9.5,4.3,13.1,7.6c3.6,3.3,6.3,7.2,8.1,11.8
			C705,514.4,706,519.5,706,525.2z M686.6,525.9c0-7.8-2-13.5-5.9-17.1c-3.9-3.6-9.8-5.4-17.7-5.4h-8v44.7h9c7,0,12.6-1.8,16.6-5.4
			C684.6,539.1,686.6,533.5,686.6,525.9z"/>
	</g>
</g>
</svg>
